<svg width="92px" height="21px" viewBox="30 25 92 21" version="1.1" xmlns="http://www.w3.org/2000/svg" xmlns:xlink="http://www.w3.org/1999/xlink">
    <desc>JustPark</desc>
    <defs></defs>
    <g id="Just-park-logo" stroke="none" stroke-width="1" fill="none" fill-rule="evenodd" transform="translate(30.000000, 25.000000)">
        <g id="Group" transform="translate(42.683030, 0.000000)" fill="#26b13e">
            <path d="M20.4878546,16.2272727 C18.7805334,16.2272727 17.3877187,14.8181818 17.3877187,13.0909091 C17.3877187,11.3636364 18.7805334,9.95454545 20.4878546,9.95454545 C22.1951758,9.95454545 23.5879905,11.3636364 23.5879905,13.0909091 C23.5879905,14.8181818 22.1951758,16.2272727 20.4878546,16.2272727 M26.6431969,6.95454545 L26.6431969,6.95454545 C26.5982674,6.95454545 26.5982674,6.95454545 26.5982674,6.90909091 L26.5533379,6.90909091 L26.5533379,6.90909091 C26.4634789,6.86363636 26.3736198,6.86363636 26.2837608,6.86363636 L24.5315101,6.86363636 C23.992356,6.86363636 23.63292,7.31818182 23.63292,7.72727273 L23.63292,7.81818182 L23.63292,7.81818182 L23.63292,7.81818182 C23.63292,7.95454545 23.4981315,8.09090909 23.363343,8.09090909 C23.2734839,8.09090909 23.2285544,8.04545455 23.1836249,8 L23.1386954,7.95454545 C22.2850348,6.90909091 20.8472906,6.72727273 20.3081366,6.68181818 L20.1733481,6.68181818 C16.5340581,6.68181818 13.7034992,9.40909091 13.7034992,13.1363636 C13.7034992,16.8636364 16.8934941,19.4545455 20.0385595,19.4545455 C20.3530661,19.4545455 22.1951758,19.4545455 23.1386954,18.2727273 L23.1836249,18.2272727 C23.2285544,18.1818182 23.3184135,18.1363636 23.363343,18.1363636 C23.4981315,18.1363636 23.63292,18.2727273 23.63292,18.4090909 L23.63292,18.4090909 L23.63292,18.5 C23.63292,18.9545455 23.992356,19.3636364 24.5315101,19.3636364 L26.2837608,19.3636364 C26.3736198,19.3636364 26.4634789,19.3636364 26.5533379,19.3181818 L26.5533379,19.3181818 L26.5982674,19.3181818 L26.6431969,19.3181818 L26.6431969,19.3181818 C26.9127739,19.1818182 27.1374214,18.9090909 27.1823509,18.5454545 L27.1823509,7.72727273 C27.1374214,7.36363636 26.9127739,7.09090909 26.6431969,6.95454545" id="Shape"></path>
            <path d="M35.269662,6.77272727 C34.8652964,6.77272727 33.4724817,6.77272727 32.3941736,7.95454545 L32.3492441,8 C32.3043146,8.04545455 32.2144556,8.09090909 32.1695261,8.09090909 C32.0347376,8.09090909 31.899949,7.95454545 31.899949,7.81818182 L31.899949,7.81818182 L31.899949,7.72727273 C31.899949,7.27272727 31.540513,6.86363636 31.0013589,6.86363636 L29.2491082,6.86363636 C29.1592492,6.86363636 29.0693902,6.86363636 28.9795312,6.90909091 L28.9795312,6.90909091 L28.8896722,6.95454545 L28.8896722,6.95454545 C28.5751656,7.09090909 28.3954476,7.36363636 28.3505181,7.72727273 L28.3505181,7.81818182 L28.3505181,8 L28.3505181,18.2272727 L28.3505181,18.4545455 C28.3505181,18.9545455 28.7548836,19.3636364 29.2491082,19.3636364 L31.0013589,19.3636364 C31.4955835,19.3636364 31.899949,18.9545455 31.899949,18.4545455 L31.899949,13.5 C31.899949,11.2727273 33.7420588,10.1363636 35.0450144,10.1363636 L35.3145915,10.1363636 C35.7638865,10.1363636 36.1233226,9.81818182 36.2131816,9.36363636 L36.2131816,9.18181818 L36.2131816,7.68181818 C36.2131816,7.18181818 35.808816,6.77272727 35.359521,6.77272727 C35.3145915,6.77272727 35.269662,6.77272727 35.269662,6.77272727" id="Shape"></path>
            <path d="M7.18872091,0 C3.36971293,0 0.269577034,3.04545455 0.269577034,7.09090909 L0.269577034,18.6818182 L0.269577034,18.6818182 C0.269577034,18.8636364 0.359436046,19 0.449295057,19.1363636 C0.494224563,19.1818182 0.494224563,19.1818182 0.539154068,19.2272727 C0.539154068,19.2272727 0.584083574,19.2272727 0.584083574,19.2727273 L0.584083574,19.2727273 C0.673942585,19.3636364 0.808731102,19.4090909 0.94351962,19.4090909 L0.94351962,19.4090909 L1.07830814,19.4090909 L1.16816715,19.4090909 C2.83055886,19.2727273 4.08858502,17.8636364 4.08858502,16.1818182 L4.08858502,7.27272727 L4.08858502,7.04545455 C4.08858502,5.31818182 5.48139969,3.90909091 7.18872091,3.90909091 C8.89604213,3.90909091 10.2888568,5.31818182 10.2888568,7.04545455 L10.2888568,7.04545455 C10.2439273,7.77272727 9.92942076,8.45454545 9.4801257,8.95454545 L9.39026669,9.04545455 C8.89604213,9.54545455 8.44674707,9.81818182 7.81773399,9.81818182 C7.72787498,9.81818182 7.68294547,9.77272727 7.63801597,9.72727273 C7.54815696,9.63636364 7.59308646,9.54545455 7.59308646,9.54545455 L7.59308646,8.63636364 C7.59308646,8.59090909 7.59308646,8.54545455 7.54815696,8.5 C7.45829794,8.40909091 7.32350943,8.40909091 7.23365042,8.5 L4.85238661,10.9090909 C4.7175981,11.0454545 4.67266859,11.2272727 4.67266859,11.4090909 C4.67266859,11.5909091 4.7175981,11.7272727 4.85238661,11.8636364 L7.18872091,14.4545455 L7.23365042,14.5 C7.27857992,14.5454545 7.32350943,14.5454545 7.36843893,14.5454545 C7.50322745,14.5454545 7.59308646,14.4545455 7.59308646,14.3181818 L7.59308646,13.3636364 C7.59308646,13.1818182 7.77280448,13.0909091 7.8626635,13.0909091 L7.95252251,13.0909091 C11.8613895,13.0909091 13.9730763,10.5909091 14.1078648,7.09090909 L14.1078648,7.09090909 C14.1078648,3.18181818 11.0975879,0 7.18872091,0" id="Shape"></path>
            <path d="M45.8730253,6.90909091 C44.8396467,6.90909091 43.8961271,7.36363636 43.267114,8.18181818 L41.2452862,10.8181818 C41.2003567,10.8636364 41.1554272,10.8636364 41.1104977,10.8636364 C40.9757092,10.8636364 40.8858502,10.7727273 40.8858502,10.6363636 L40.8858502,1.72727273 C40.8858502,1.22727273 40.4814846,0.818181818 39.9872601,0.818181818 L37.9205028,0.818181818 C37.4262782,0.818181818 37.0219127,1.22727273 37.0219127,1.72727273 L37.0219127,18.2272727 L37.0219127,18.4090909 C37.0219127,18.9090909 37.4262782,19.3181818 37.9205028,19.3181818 L39.9872601,19.3181818 C40.4814846,19.3181818 40.8858502,18.9090909 40.8858502,18.4090909 L40.8858502,18.2727273 L40.8858502,15.0909091 C40.8858502,14.9545455 40.9757092,14.8636364 41.1104977,14.8636364 C41.1554272,14.8636364 41.2003567,14.8636364 41.2452862,14.9090909 L41.2902157,14.9545455 L43.6714795,18.0909091 C44.3454221,18.9545455 45.2440122,19.3636364 46.2773909,19.3636364 L47.9847121,19.3636364 C48.4340071,19.3636364 48.6586547,18.8181818 48.4340071,18.5 L44.4802106,13.3181818 C44.3903516,13.1818182 44.2555631,12.9545455 44.2555631,12.7272727 C44.2555631,12.5 44.3903516,12.2727273 44.4802106,12.0909091 L47.8049941,7.72727273 C48.0296416,7.40909091 47.8049941,6.90909091 47.4006285,6.90909091 L45.8730253,6.90909091 Z" id="Shape"></path>
        </g>
        <path d="M22.4198233,13.5 L22.4198233,13.0909091 L22.4198233,7.90909091 L22.4198233,7.77272727 C22.4198233,7.27272727 22.0154578,6.86363636 21.5212332,6.86363636 L21.3864447,6.86363636 L19.634194,6.86363636 L19.4994055,6.86363636 C19.0051809,6.86363636 18.6008154,7.27272727 18.6008154,7.77272727 L18.6008154,7.90909091 L18.6008154,12.1818182 C18.6008154,12.8636364 18.5558859,13.7727273 18.4660268,14.4545455 C18.4660268,14.5454545 18.4660268,14.5909091 18.4210973,14.6818182 L18.4210973,14.7727273 C18.2413793,15.6818182 17.4775777,16.3181818 16.5340581,16.4090909 L16.4441991,16.4090909 L16.3543401,16.4090909 C15.4108205,16.3636364 14.6919484,15.6818182 14.4673008,14.7727273 L14.4673008,14.6818182 C14.4673008,14.5909091 14.4673008,14.5454545 14.4223713,14.4545455 C14.3774418,13.7727273 14.2875828,12.8636364 14.2875828,12.1818182 L14.2875828,7.90909091 L14.2875828,7.77272727 C14.2875828,7.27272727 13.8832173,6.86363636 13.3889927,6.86363636 L13.2542042,6.86363636 L11.5019535,6.86363636 L11.3671649,6.86363636 C10.8729404,6.86363636 10.4685748,7.27272727 10.4685748,7.77272727 L10.4685748,7.90909091 L10.4685748,13.0454545 L10.4685748,13.4545455 C10.4685748,14.6818182 10.4236453,16.5909091 11.6816715,17.8636364 C12.6251911,18.8636364 14.0180058,19.5 16.3992696,19.5 L16.3992696,19.5 L16.4441991,19.5 L16.4891286,19.5 L16.4891286,19.5 C18.8703924,19.5 20.2632071,18.8181818 21.2067267,17.8636364 C22.4647528,16.5909091 22.4198233,14.5909091 22.4198233,13.5" id="Shape" fill="#51565a"></path>
        <path d="M33.2029047,15.6363636 C33.2478342,15.4090909 33.2478342,15.2272727 33.2478342,15 C33.1579752,13.8181818 32.4840326,12.6818182 31.360795,12.0454545 C31.270936,12 31.1810769,11.9545455 31.0912179,11.9090909 C30.5969934,11.6818182 30.0129098,11.5454545 29.3838967,11.4090909 C29.2940377,11.4090909 29.2041787,11.3636364 29.1143197,11.3636364 C28.7099541,11.3181818 28.1258706,11.2272727 27.7664345,10.9545455 L27.7664345,10.9545455 C27.6765755,10.9090909 27.631646,10.8636364 27.5867165,10.7727273 C27.27221,10.4090909 27.362069,9.81818182 27.721505,9.5 C27.7664345,9.45454545 27.811364,9.40909091 27.901223,9.40909091 L27.901223,9.40909091 L27.9461525,9.40909091 L27.991082,9.40909091 C28.2606591,9.31818182 28.4853066,9.27272727 28.4853066,9.27272727 C29.5186852,9.22727273 30.2824868,9.45454545 30.8216409,9.63636364 C30.9564294,9.68181818 31.0912179,9.72727273 31.2260065,9.72727273 C31.6753015,9.72727273 31.8550195,9.40909091 31.9448785,9.27272727 C31.9448785,9.27272727 32.1695261,8.90909091 32.4391031,8.31818182 L32.4840326,8.22727273 C32.6637506,7.90909091 32.5738916,7.63636364 32.5289621,7.45454545 C32.3941736,7.18181818 32.1695261,7 31.9898081,6.95454545 C31.0462884,6.68181818 29.9679803,6.45454545 28.9346017,6.45454545 C26.1040428,6.40909091 23.6778495,7.81818182 23.6778495,10.5909091 C23.6778495,12.3181818 24.9358757,13.6818182 26.3286903,14.0909091 C27.0924919,14.3181818 27.901223,14.4545455 28.2606591,14.5 C28.4403771,14.5454545 28.5751656,14.5454545 28.7099541,14.5909091 C28.7548836,14.5909091 28.7548836,14.5909091 28.7998131,14.6363636 C28.9346017,14.6818182 29.1143197,14.8181818 29.2041787,14.9545455 C29.3838967,15.1818182 29.4288262,15.4090909 29.4288262,15.6818182 C29.4288262,15.9545455 29.2940377,16.2727273 29.0693902,16.4545455 C28.7998131,16.6363636 28.3954476,16.6818182 28.2606591,16.7272727 C26.9577034,16.7272727 25.7446068,16.3181818 24.8460166,15.9090909 C24.7561576,15.8636364 24.6213691,15.8181818 24.4865806,15.8181818 C24.3068626,15.8181818 23.992356,15.9090909 23.8575675,16.2272727 C23.6778495,16.5454545 23.453202,17 23.2734839,17.2727273 C23.1386954,17.5 23.1386954,17.7727273 23.1836249,18 C23.2734839,18.2727273 23.4981315,18.5 23.6778495,18.5909091 C24.8460166,19.1363636 26.1040428,19.5909091 27.5867165,19.6818182 L27.9461525,19.6818182 C29.4737557,19.7272727 31.0462884,19.1363636 32.0347376,18.2272727 C32.6637506,17.5 33.1130457,16.6363636 33.2029047,15.6363636" id="Shape" fill="#51565a"></path>
        <path d="M41.6047223,9.09090909 L41.6047223,7.86363636 L41.6047223,7.81818182 C41.6047223,7.31818182 41.2003567,6.90909091 40.7061322,6.90909091 L40.6162731,6.90909091 L39.7626125,6.90909091 C39.358247,6.90909091 39.0437404,6.59090909 39.0437404,6.18181818 L39.0437404,5.5 L39.0437404,4.09090909 L39.0437404,3.90909091 C39.0437404,3.40909091 38.6393749,3 38.1451503,3 L36.0783931,3 C35.5841685,3 35.179803,3.40909091 35.179803,3.90909091 L35.179803,4.04545455 L35.179803,6 L35.179803,6.13636364 C35.179803,6.54545455 34.8652964,6.86363636 34.5058604,6.86363636 L34.4609309,6.86363636 C34.2812128,6.86363636 34.0565653,6.90909091 33.8768473,7.04545455 C33.6521998,7.22727273 33.5174112,7.5 33.5174112,7.77272727 L33.5174112,8.95454545 L33.5174112,9.13636364 C33.5174112,9.31818182 33.5623408,9.54545455 33.6971293,9.72727273 C33.8768473,9.95454545 34.1464243,10.0454545 34.3710719,10.0909091 L34.3710719,10.0909091 C34.7754374,10.0909091 35.0899439,10.4090909 35.0899439,10.8181818 L35.0899439,18.2727273 C35.0899439,19 35.44938,19.3636364 36.1682521,19.3636364 L37.9205028,19.3636364 C38.7741634,19.3636364 38.9988109,18.7727273 38.9988109,18.2727273 L38.9988109,11.5454545 L38.9988109,10.8181818 C38.9988109,10.4090909 39.3133175,10.0909091 39.717683,10.0909091 L40.6162731,10.0909091 C40.7959912,10.0909091 41.0206387,10.0454545 41.2003567,9.90909091 C41.5148633,9.68181818 41.6047223,9.40909091 41.6047223,9.09090909" id="Shape" fill="#51565a"></path>
        <path d="M9.16561916,1.40909091 C9.16561916,1.40909091 9.16561916,1.36363636 9.16561916,1.40909091 C9.12068966,1.22727273 9.07576015,1.04545455 8.89604213,0.909090909 C8.76125361,0.818181818 8.62646509,0.772727273 8.49167658,0.772727273 L8.49167658,0.772727273 L8.40181756,0.772727273 L8.40181756,0.772727273 L8.35688806,0.772727273 L8.26702905,0.772727273 C6.60463734,0.909090909 5.30168167,2.27272727 5.30168167,4 L5.30168167,13.1818182 C5.30168167,16.4545455 2.24647528,16.5 2.20154578,16.5 L2.15661627,16.5 C1.5725327,16.5 1.07830814,16.3181818 0.763801597,16.1818182 L0.718872091,16.1818182 C0.673942585,16.1818182 0.584083574,16.1363636 0.539154068,16.1363636 C0.224647528,16.1363636 0,16.3636364 0,16.6363636 C0,16.6363636 0,16.6363636 0,16.6818182 L0,16.6818182 C0,16.7727273 0,16.9090909 0.0449295057,17 C0.62901308,18.9090909 3.10013589,19.5454545 4.26830304,19.5454545 C6.91914388,19.5454545 9.16561916,17.5909091 9.16561916,14.3636364 L9.16561916,1.45454545 L9.16561916,1.40909091" id="Shape" fill="#51565a"></path>
    </g>
</svg>